# xmcd CD database file
#
# Track frame offsets:
#	150
#	18413
#	30855
#	51870
#	75948
#	100377
#	133113
#	149894
#	170543
#	193162
#
# Disc length: 2793 seconds
#
# Revision: 0
# Processed by: cddbd v1.5.2PL0 Copyright (c) Steve Scherf et al.
# Submitted via: CDex 1.70beta2
#
DISCID=850ae70a
DTITLE=Sagy Segal - Global Village
DYEAR=2009
DGENRE=Jazz
TTITLE0=Odd Dance
TTITLE1=Hermeto
TTITLE2=Musette
TTITLE3=Mediterranean
TTITLE4=Cristal
TTITLE5=Indian Blues
TTITLE6=Celtish
TTITLE7=Little Tango
TTITLE8=The Old New Land
TTITLE9=Waltz For Lihi
EXTD=YEAR: 2009
EXTT0=
EXTT1=
EXTT2=
EXTT3=
EXTT4=
EXTT5=
EXTT6=
EXTT7=
EXTT8=
EXTT9=
PLAYORDER=
